<?xml version="1.0" encoding="utf-8"?>
<!-- Generator: Adobe Illustrator 25.4.1, SVG Export Plug-In . SVG Version: 6.00 Build 0)  -->
<svg version="1.1" id="Layer_1" xmlns="http://www.w3.org/2000/svg" xmlns:xlink="http://www.w3.org/1999/xlink" x="0px" y="0px"
	 viewBox="0 0 132 64" style="enable-background:new 0 0 132 64;" xml:space="preserve">
<style type="text/css">
	.st0{fill-rule:evenodd;clip-rule:evenodd;fill:#221F1F;}
	.st1{fill-rule:evenodd;clip-rule:evenodd;fill:#804096;}
	.st2{fill-rule:evenodd;clip-rule:evenodd;fill:#B48D36;}
	.st3{fill:#221F1F;}
	.st4{fill:#B48D36;}
</style>
<g>
	<g>
		<g>
			<g>
				<g>
					<path class="st0" d="M102.1,16.17c1.33-0.15,2.39,0.29,3.18,0.9c0.47,0.37,0.8,0.7,0.76,1.23c-0.04,0.49-0.42,0.83-0.85,0.85
						c-0.63,0.04-1.11-0.72-1.71-0.95c-1.8-0.69-3.96,1.14-3.04,3.23c0.42,0.95,1.71,1.77,3.09,1.23c0.7-0.27,0.97-0.96,1.66-0.95
						c0.52,0.01,0.93,0.38,0.95,0.9c0.02,0.71-0.7,1.14-1.14,1.42c-0.8,0.52-1.81,0.91-3.18,0.66c-1.91-0.34-3.82-2.17-3.51-4.89
						C98.5,18.06,100.07,16.4,102.1,16.17z"/>
				</g>
				<g>
					<path class="st0" d="M110.46,16.17c1.92-0.22,3.49,0.91,4.13,1.8c0.47,0.66,0.76,1.67,0.76,2.52
						c-0.01,2.31-1.78,4.06-3.75,4.27c-3.05,0.33-5.2-2.01-4.94-4.8c0.09-0.98,0.47-1.64,0.76-2.04c0.31-0.43,0.76-0.87,1.19-1.14
						C109.08,16.48,109.61,16.26,110.46,16.17z M108.75,19.54c-0.76,1.85,0.83,3.29,2.18,3.32c1.1,0.02,2.48-0.78,2.47-2.42
						c-0.01-1.51-1.28-2.57-2.8-2.33C109.57,18.27,108.96,19.01,108.75,19.54z"/>
				</g>
				<g>
					<path class="st0" d="M121.95,21.1c0-0.9,0-1.59,0-2.52c0-0.64-0.15-1.75,0.28-2.18c0.37-0.37,1.31-0.28,1.57,0.24
						c0.19,0.39,0.1,1.23,0.1,1.85c0,1.16,0,2.61,0,3.85c0,0.65,0.1,1.45-0.05,1.85c-0.14,0.39-0.71,0.66-1.19,0.57
						c-0.45-0.08-0.8-0.7-1.14-1.14c-1.02-1.31-1.89-2.46-2.94-3.75c0,0.82,0,1.59,0,2.56c0,0.76,0.13,1.75-0.38,2.14
						c-0.33,0.25-0.94,0.26-1.28-0.05c-0.54-0.49-0.28-2.6-0.29-3.7c0-0.69,0-1.35,0-1.99c0-1.28-0.24-3,1.19-2.61
						c0.46,0.13,0.76,0.67,1.14,1.14C119.96,18.62,120.98,19.92,121.95,21.1z"/>
				</g>
			</g>
			<g>
				<g>
					<path class="st1" d="M82.72,17.97c0.11-0.48,0.02-1.16,0.05-1.71c2.3,0,4.59,0,6.89,0c0,0.47,0,0.95,0,1.42
						c-1.65,0-3.29,0-4.94,0c0,0.62,0,1.23,0,1.85c1.42,0.11,3.05,0.02,4.56,0.05c0,0.49,0,0.98,0,1.47c-1.52,0-3.04,0-4.56,0
						c0,0.7,0,1.39,0,2.09c1.68,0.11,3.56,0.02,5.32,0.05c0.96-2.26,1.86-4.6,2.75-6.93c0.78,0,1.55,0,2.33,0
						c1.05,2.83,2.19,5.57,3.23,8.4c-0.66,0-1.33,0-1.99,0c-0.21-0.58-0.44-1.14-0.67-1.71c-1.16,0-2.31,0-3.47,0
						c-0.3,0.51-0.46,1.15-0.71,1.71c-2.91,0-5.82,0-8.74,0c0-1.63,0-3.26,0-4.89c-0.25,0.44-0.4,0.82-0.71,1.14
						c-0.95,0.95-2.66,0.77-4.56,0.76c0,1,0,1.99,0,2.99c-0.65,0-1.3,0-1.95,0c0.03-2.79-0.06-5.7,0.05-8.4
						C78.36,16.44,82.25,15.5,82.72,17.97z M80.3,20.06c0.53-0.3,0.92-1.37,0.43-1.99c-0.53-0.66-2.02-0.27-3.18-0.38
						c-0.11,0.74-0.02,1.69-0.05,2.52C78.39,20.03,79.53,20.49,80.3,20.06z M92.79,21.53c0.81,0,1.61,0,2.42,0
						c-0.41-1.09-0.8-2.21-1.28-3.23C93.58,19.42,93.16,20.45,92.79,21.53z"/>
				</g>
			</g>
		</g>
		<g>
			<g>
				<path class="st2" d="M59.6,23.83c-0.45,0-0.9,0-1.35,0c-0.85-6.62-3.86-11.69-7.72-15.54c-3.5-3.5-8.57-6.3-14.95-6.91
					c-0.38-0.04-0.79-0.17-1.19-0.22c-1.15-0.13-2.23-0.01-3.4,0c8.46-0.92,15.58,2.23,20.24,6.53c2.17,2,4.06,4.14,5.45,6.8
					C58.11,17.21,59.17,20.35,59.6,23.83z"/>
			</g>
			<g>
				<path class="st2" d="M50.64,21.18c-0.63-0.09-0.95-0.66-1.3-1.08c-2.52-3.03-5.63-5.8-9.71-7.34c-2.48-0.94-5.1-1.62-8.15-1.62
					c-3.12,0-5.65,0.68-8.15,1.62c-4.66,1.76-8.37,4.57-11.28,8.26c-2.89,3.65-4.95,8.3-5.23,14.25c-0.12-0.09-0.02-0.41-0.05-0.59
					c-0.16,1.15-0.13,2.66-0.05,3.89c0.02,0.1-0.05,0.11-0.05,0.05c-0.82-8.79,2.2-15.24,6.21-19.92c2.01-2.34,4.33-4.44,7.29-5.94
					c2.96-1.5,6.48-2.78,10.42-2.97c5.2-0.25,9.29,1.23,12.52,3.24C46.35,15.07,48.78,17.85,50.64,21.18z"/>
			</g>
			<g>
				<path class="st2" d="M58.03,25.66c0.22,0,0.43,0,0.65,0c0.27-0.22,0.36-0.61,0.76-0.7c0.68-0.16,1.14,0.27,1.4,0.7
					c0.25-0.49,0.75-0.83,1.4-0.65c0.36,0.1,0.52,0.34,0.7,0.65c0.27-0.22,0.36-0.61,0.76-0.7c0.67-0.15,1.14,0.27,1.4,0.7
					c0.32,0.04,0.79-0.07,1.03,0.05c0,0.11,0,0.22,0,0.32c-0.09,0.2-0.45,0.1-0.7,0.11c-0.27,0-0.54,0-0.76,0
					c-0.23-0.01-0.03-0.43-0.22-0.49c-0.35-0.47-1.07-0.08-1.03,0.49c-0.31,0-0.61,0-0.92,0c-0.24,0.03-0.01-0.42-0.16-0.49
					c-0.35-0.45-1.09-0.12-1.03,0.49c-0.31,0-0.61,0-0.92,0c-0.24,0.01,0-0.47-0.22-0.49c-0.36-0.48-1.06-0.07-1.03,0.49
					c-0.49,0-0.97,0-1.46,0c-0.3-0.28-0.33-0.58-0.59-0.81c-0.59-0.5-1.74-0.68-2.81-0.81c-1.11-0.14-2.16-0.31-2.97-0.65
					c-1.69-0.71-2.62-1.98-3.99-3.18c-1.37-1.19-2.73-2.06-4.43-2.75c-1.72-0.7-3.76-1.16-6.04-1.03c-4.37,0.26-7.53,1.97-9.98,4.43
					c-2.53,2.53-4.79,6.32-4.53,11.5c0.22,4.46,2.46,7.85,4.91,10.2c1.27,1.22,2.85,2.24,4.59,2.97c1.76,0.73,3.93,1.26,6.37,1.13
					c3.97-0.2,7.06-1.9,9.39-4.05c1.28-1.18,2.15-2.29,3.72-2.97c0.73-0.32,1.81-0.54,2.7-0.65c1.58-0.19,3.11-0.25,3.62-1.62
					c0.49,0,0.97,0,1.46,0c0.2,0.02,0.08,0.35,0.16,0.49c0.36,0.45,1.16,0.14,1.08-0.49c0.31,0,0.61,0,0.92,0
					c0.26-0.03-0.03,0.5,0.22,0.49c0.31,0.49,1.08,0.11,0.97-0.49c0.31,0,0.61,0,0.92,0c0.2,0.02,0.08,0.35,0.16,0.49
					c0.36,0.45,1.16,0.14,1.08-0.49c0.49,0.04,1.11-0.07,1.51,0.05c0,0.13,0,0.25,0,0.38c-0.14,0.24-0.71,0.04-1.03,0.11
					c-0.27,0.2-0.33,0.53-0.7,0.65c-0.6,0.18-1.16-0.16-1.4-0.65c-0.3,0.27-0.55,0.7-1.08,0.7c-0.48,0.01-0.84-0.29-1.03-0.7
					c-0.24-0.01-0.24,0.23-0.32,0.38c-0.55,0.53-1.61,0.29-1.83-0.38c-0.23,0-0.47,0-0.7,0c-0.41,0.4-0.52,0.69-0.92,0.92
					c-1.48,0.84-3.86,0.57-5.51,1.24c-1.55,0.63-2.44,1.77-3.78,2.97c-2.71,2.43-6.17,4.4-11.33,4.1c-2.23-0.13-4.28-0.81-5.94-1.67
					c-1.67-0.86-3.08-1.91-4.32-3.24c-2.39-2.57-4.43-6.05-4.43-10.69c0-4.61,2.03-8.13,4.43-10.69c2.58-2.76,5.78-4.41,10.36-4.97
					c0.37-0.05,1.09-0.02,1.62,0c4.01,0.18,7.33,1.97,9.61,4.05c1.39,1.27,1.97,2.26,3.83,3.02c0.83,0.34,1.79,0.47,2.81,0.59
					C56.04,24.24,57.37,24.55,58.03,25.66z"/>
			</g>
			<g>
				<path class="st2" d="M58.46,39.75c0.19,0.05-0.05,0.22-0.05,0.22c-1.88,2.78-4.69,5.02-7.88,6.58c-3.32,1.63-7.57,2.67-12.47,2
					c8.77-0.37,14.54-3.74,18.73-8.69C57.31,39.78,57.84,39.72,58.46,39.75z"/>
			</g>
			<g>
				<path class="st2" d="M62.83,23.83c-0.41,0-0.83,0-1.24,0c-0.27-4.81-1.64-8.72-3.56-11.93c-1.92-3.21-4.52-5.84-7.61-7.88
					c-0.09-0.14,0.16-0.05-0.11-0.22c-0.05,0.17-0.07,0.04-0.11-0.11c-0.96-0.57-1.92-1.14-2.91-1.67c-0.22,0.05-0.01-0.16,0,0
					c4.29,1.87,7.79,4.7,10.42,8.26C60.34,13.84,62.2,18.32,62.83,23.83z"/>
			</g>
			<g>
				<path class="st2" d="M16.37,8.66c0.64-0.68,1.52-1.12,2.37-1.62c2.51-1.48,5.58-2.69,9.07-3.24c5.02-0.79,10.29,0.11,14.14,1.67
					c3.75,1.52,6.94,4.07,9.45,6.96c2.58,2.97,4.47,6.65,5.13,11.23c-0.54-0.09-1.02-0.24-1.51-0.38c-0.61-4-2.27-7.23-4.48-9.82
					c-2.2-2.58-4.85-4.66-7.93-6.31c-3.06-1.64-6.93-2.77-11.33-2.97c-2.31-0.1-4.44,0.28-6.37,0.76c-1.45,0.36-2.74,0.8-3.99,1.35
					c-0.39,0.17-0.81,0.39-1.24,0.43c0.13,0.13-0.13,0.06-0.11,0.05c0,0,0.1,0.11,0,0.11c-0.11,0-0.06,0.06-0.11,0.05
					c-0.31-0.01-0.88,0.36-1.3,0.59C17.51,7.89,16.82,8.3,16.37,8.66z"/>
			</g>
			<g>
				<path class="st2" d="M9.46,19.08c-0.2-0.06-0.02,0.17-0.05,0.22c0,0-0.13,0.01-0.16,0.05c-0.01,0.02,0.08,0.08,0.05,0.11
					c-0.02,0.02-0.08-0.08-0.11-0.05c-0.22,0.22-0.43,0.66-0.65,1.03c-0.33,0.55-0.66,1.18-0.92,1.73c0.13-0.57,0.43-1.11,0.7-1.62
					c3.03-5.72,7.84-9.99,14.36-12.36c2.4-0.87,5.1-1.48,8.1-1.57c3.03-0.08,5.95,0.5,8.42,1.3c2.49,0.8,4.63,1.98,6.42,3.29
					c3.79,2.79,6.45,6.5,7.88,11.5c-0.48-0.15-0.9-0.36-1.3-0.59c-0.74-2.06-1.81-3.86-3.08-5.45c-1.25-1.57-2.61-3.09-4.21-4.32
					c-3.25-2.5-7.43-3.96-12.63-4.37c-5.59-0.45-10.4,1.03-13.92,2.97c-3.2,1.76-5.87,4.1-7.99,6.91c-0.29,0.39-0.54,0.85-0.86,1.24
					C9.48,19.11,9.34,19.29,9.46,19.08z"/>
			</g>
			<g>
				<path class="st2" d="M60.84,10.77c2.4,3.1,4.57,7.63,5.02,13.06c-0.16,0-0.32,0-0.49,0c-0.19-0.13-0.14-0.41-0.16-0.59
					c-0.34-2.99-0.94-5.5-1.94-7.83c-0.2-0.46-0.48-0.89-0.54-1.35C62.17,12.89,61.52,11.81,60.84,10.77z"/>
			</g>
			<g>
				<path class="st2" d="M14.26,53.24c-0.41-0.43-0.8-0.94-1.13-1.46c-2.35-3.63-4.33-8.72-4.05-14.73
					c0.16-3.46,0.77-6.35,1.78-9.01c0.99-2.6,2.37-4.85,3.99-6.8c3.18-3.84,7.53-7.04,13.49-8.1c6.87-1.22,12.98,1.09,16.78,4.1
					c-3.94-1.92-9.75-4.1-15.92-2.86c-2.79,0.56-5.17,1.27-7.29,2.48c-2.06,1.18-3.75,2.66-5.29,4.43
					c-3.11,3.55-5.56,7.56-6.53,13.01c-0.94,5.28,0.06,10.68,1.78,14.52c0.14,0.31,0.26,0.59,0.38,0.86c0,0.01,0.02,0.12,0.05,0.16
					c0.13,0.17-0.03-0.03,0.11,0.32C12.86,51.3,13.61,52.21,14.26,53.24z"/>
			</g>
			<g>
				<path class="st2" d="M27.81,61.93c-0.67-0.16-1.26-0.51-1.83-0.81c-4.13-2.13-7.39-5.34-9.82-9.28
					c-2.7-4.38-4.82-10.46-3.67-17.49c1.01-6.17,3.72-10.76,7.66-14.14c3.9-3.34,9.39-5.55,16.68-4.8
					c-6.14,0.36-11.04,2.07-14.79,5.07c-3.8,3.04-6.52,6.68-7.83,12.04c-0.69,2.86-0.93,6.03-0.65,8.96
					c0.76,7.92,4.74,13.79,9.72,17.59c0.45,0.35,0.98,0.58,1.35,1.03c0.16-0.18,0.02,0.25,0.22,0.05c-0.06-0.11,0.06,0.07,0.05,0.16
					C25.86,60.85,26.74,61.49,27.81,61.93z"/>
			</g>
			<g>
				<path class="st2" d="M40.76,62.69c-0.07,0.12-0.38,0.02-0.54,0.05c1.15,0.16,2.66,0.13,3.89,0.05c0.1-0.02,0.11,0.05,0.05,0.05
					c-7.19,0.74-12.94-1.31-17.32-4.21c-4.44-2.93-7.79-6.86-9.77-12.04c-1.04-2.73-1.79-5.75-1.78-9.17c0.01-3.2,0.93-6.33,2.1-8.8
					c2.33-4.92,6.17-8.47,11.17-10.63c0.22,0.01,0.01,0.04,0,0.11c-4.02,2.59-7.61,5.87-9.71,10.47c-1.06,2.3-1.95,5.03-2.16,7.93
					c-0.22,3.02,0.33,6.1,1.24,8.69c0.88,2.5,1.98,4.77,3.35,6.75c1.37,1.98,3.04,3.62,4.91,5.18
					C29.87,60.18,34.61,62.39,40.76,62.69z"/>
			</g>
			<g>
				<path class="st2" d="M7.46,22.53C7.33,22.39,7.62,22.22,7.46,22.53L7.46,22.53z"/>
			</g>
			<g>
				<path class="st2" d="M22.84,24.26c-1.97,3.86-4.04,9.59-2.97,15.65c0.51,2.9,1.2,5.18,2.37,7.29c0.59,1.06,1.17,2.06,1.89,2.97
					c0.7,0.88,1.55,1.65,2.37,2.43c3.27,3.11,7.46,5.63,12.68,6.69c5.86,1.19,12.16,0.03,16.19-2.16c-0.12,0.21,0.14-0.01,0.11-0.05
					c0.17,0.11-0.03-0.12,0.27,0c1.04-0.62,2.15-1.16,3.08-1.89c-0.41,0.46-0.97,0.78-1.51,1.13c-1.56,1.03-3.43,2-5.4,2.7
					c-2.67,0.95-5.91,1.62-9.39,1.46c-6.82-0.32-11.83-2.59-15.76-5.88c-3.91-3.27-7.16-7.51-8.15-13.55
					C17.5,34.14,19.78,28.12,22.84,24.26z"/>
			</g>
			<g>
				<path class="st2" d="M20.95,32.57c0.34,6.71,2.29,11.79,5.67,15.6c1.73,1.95,3.34,3.57,5.72,4.91c2.26,1.27,4.81,2.15,7.99,2.64
					c6.93,1.08,12.95-0.62,17.27-3.24c4.42-2.68,7.65-6.53,9.98-10.9c-2.21,5.04-5.58,8.94-10.15,11.77
					c-4.41,2.73-10.53,4.79-17.59,3.67c-6.19-0.98-10.82-3.79-14.14-7.77C22.42,45.31,20.09,39.84,20.95,32.57z"/>
			</g>
			<g>
				<path class="st2" d="M60.78,39.75c0.47,0,0.94,0,1.4,0c0.19,0.05-0.09,0.32-0.16,0.43c-1.42,2.23-3.26,4.3-5.34,5.99
					c-2.25,1.82-4.83,3.34-7.88,4.21c-3.33,0.95-7.39,1.01-10.74,0.22c-3.26-0.78-5.96-2.18-8.2-3.89c2.3,1.08,5.13,2.3,8.15,2.86
					c3.29,0.61,6.81,0.35,9.93-0.43C53.86,47.66,57.79,43.98,60.78,39.75z"/>
			</g>
			<g>
				<path class="st2" d="M23.54,40.99c-0.01-0.13,0.07-0.09,0.05,0c2.22,3.35,4.83,6.25,8.31,8.47c1.67,1.07,3.68,1.87,5.88,2.54
					c2.23,0.68,4.74,1.01,7.45,0.81c2.43-0.18,4.68-0.93,6.69-1.73c5.62-2.22,9.66-5.6,12.63-10.47c0.13-0.21,0.4-0.79,0.7-0.86
					c0.14-0.03,0.23,0.02,0.49,0c0.18,0.07-0.03,0.28-0.05,0.32c-0.85,1.75-2.06,3.44-3.29,4.91c-3.89,4.65-9.33,8.37-17.16,9.12
					c-5.68,0.54-10.38-1.22-13.82-3.51C27.86,48.22,25.32,45,23.54,40.99z"/>
			</g>
			<g>
				<path class="st2" d="M54.04,40.61c-1.86,2.22-4.57,4.07-7.56,5.34c0.42-0.38,0.9-0.65,1.35-0.97c0.89-0.64,1.8-1.34,2.64-2.1
					c0.42-0.38,0.76-0.89,1.19-1.19C52.33,41.22,53.29,41.06,54.04,40.61z"/>
			</g>
		</g>
		<g>
			<g>
				<path class="st3" d="M48.36,35.27c-0.13,0.15-0.28,0.28-0.45,0.39c-0.17,0.11-0.35,0.21-0.54,0.28
					c-0.19,0.08-0.39,0.13-0.59,0.17c-0.21,0.04-0.41,0.06-0.61,0.06c-0.39,0-0.72-0.04-1-0.12c-0.28-0.08-0.52-0.19-0.72-0.32
					c-0.2-0.13-0.36-0.28-0.48-0.45c-0.12-0.17-0.22-0.33-0.28-0.5c-0.07-0.17-0.11-0.33-0.14-0.49c-0.02-0.16-0.03-0.29-0.03-0.4
					c0-0.29,0.04-0.56,0.13-0.79c0.09-0.23,0.21-0.44,0.36-0.63c0.15-0.19,0.33-0.36,0.54-0.51c0.2-0.15,0.42-0.29,0.65-0.42
					c-0.1-0.13-0.2-0.26-0.29-0.39c-0.09-0.13-0.17-0.26-0.24-0.39c-0.07-0.13-0.12-0.27-0.16-0.42c-0.04-0.15-0.06-0.31-0.06-0.48
					c0-0.24,0.04-0.47,0.13-0.68c0.09-0.22,0.21-0.41,0.38-0.57c0.17-0.16,0.37-0.29,0.62-0.39c0.25-0.1,0.53-0.14,0.85-0.14
					c0.27,0,0.54,0.04,0.79,0.11c0.26,0.07,0.48,0.18,0.68,0.33c0.2,0.15,0.36,0.33,0.48,0.55c0.12,0.22,0.18,0.48,0.18,0.77
					c0,0.21-0.04,0.42-0.11,0.61s-0.17,0.37-0.28,0.54c-0.12,0.17-0.26,0.32-0.42,0.46c-0.16,0.14-0.32,0.26-0.5,0.37
					c0.09,0.11,0.17,0.2,0.24,0.29c0.07,0.08,0.13,0.17,0.2,0.25c0.06,0.08,0.13,0.17,0.21,0.26c0.07,0.09,0.16,0.2,0.27,0.32
					c0.03-0.13,0.06-0.27,0.08-0.42c0.02-0.14,0.04-0.3,0.06-0.48h1.37c-0.03,0.26-0.06,0.49-0.1,0.69
					c-0.03,0.19-0.07,0.37-0.1,0.52c-0.04,0.15-0.08,0.3-0.13,0.43c-0.05,0.13-0.11,0.27-0.18,0.41l1.7,1.96h-1.79L48.36,35.27z
					 M46,32.49c-0.14,0.09-0.27,0.18-0.4,0.27c-0.13,0.09-0.24,0.19-0.33,0.3s-0.17,0.23-0.23,0.36c-0.06,0.13-0.08,0.28-0.08,0.45
					c0,0.16,0.03,0.31,0.1,0.44c0.07,0.13,0.16,0.24,0.28,0.33c0.12,0.09,0.25,0.16,0.4,0.21c0.15,0.05,0.3,0.07,0.46,0.07
					c0.29,0,0.55-0.05,0.76-0.16c0.22-0.11,0.41-0.27,0.57-0.48L46,32.49z M45.87,29.9c0,0.08,0.01,0.16,0.04,0.24
					c0.03,0.08,0.07,0.16,0.11,0.25c0.05,0.08,0.1,0.17,0.17,0.25c0.06,0.08,0.13,0.17,0.2,0.26c0.09-0.06,0.18-0.13,0.27-0.2
					c0.09-0.07,0.17-0.15,0.24-0.23c0.07-0.08,0.13-0.17,0.18-0.26c0.04-0.09,0.07-0.19,0.07-0.3c0-0.08-0.01-0.15-0.04-0.22
					c-0.03-0.07-0.07-0.13-0.13-0.18c-0.06-0.05-0.13-0.09-0.21-0.12c-0.08-0.03-0.18-0.05-0.28-0.05c-0.08,0-0.15,0.01-0.23,0.03
					c-0.08,0.02-0.14,0.06-0.2,0.1c-0.06,0.05-0.11,0.11-0.14,0.18C45.89,29.72,45.87,29.8,45.87,29.9z"/>
			</g>
			<g>
				<path class="st3" d="M56.03,28v8.06h-1.72V28H56.03z"/>
			</g>
			<g>
				<path class="st3" d="M57.71,28h1.73l3.4,5.4h0.02V28h1.67v8.06h-1.75l-3.38-5.4h-0.02v5.4h-1.67V28z"/>
			</g>
			<g>
				<path class="st3" d="M66.1,28h1.73l3.4,5.4h0.02V28h1.67v8.06h-1.75l-3.38-5.4h-0.02v5.4H66.1V28z"/>
			</g>
			<g>
				<path class="st3" d="M74.07,32.03c0-0.37,0.04-0.72,0.11-1.07c0.07-0.35,0.18-0.68,0.33-0.99c0.15-0.31,0.33-0.6,0.55-0.86
					c0.22-0.26,0.48-0.49,0.78-0.68c0.3-0.19,0.63-0.34,1-0.45c0.37-0.11,0.78-0.16,1.22-0.16c0.45,0,0.86,0.05,1.23,0.16
					c0.37,0.11,0.71,0.25,1.01,0.45c0.3,0.19,0.56,0.42,0.78,0.68c0.22,0.26,0.41,0.55,0.56,0.86c0.15,0.31,0.26,0.64,0.33,0.99
					c0.07,0.35,0.11,0.71,0.11,1.07c0,0.37-0.04,0.72-0.11,1.07c-0.07,0.35-0.19,0.68-0.33,0.99c-0.15,0.31-0.34,0.59-0.56,0.85
					c-0.22,0.26-0.49,0.48-0.78,0.67c-0.3,0.19-0.63,0.33-1.01,0.44c-0.37,0.1-0.78,0.16-1.23,0.16c-0.45,0-0.85-0.05-1.22-0.16
					c-0.37-0.1-0.7-0.25-1-0.44c-0.3-0.19-0.56-0.41-0.78-0.67c-0.22-0.26-0.41-0.55-0.55-0.85c-0.15-0.31-0.26-0.64-0.33-0.99
					C74.11,32.76,74.07,32.4,74.07,32.03z M75.82,32.03c0,0.22,0.02,0.44,0.05,0.66c0.04,0.22,0.09,0.43,0.17,0.62
					c0.08,0.2,0.18,0.38,0.3,0.55c0.12,0.17,0.26,0.32,0.43,0.44s0.36,0.22,0.57,0.29c0.21,0.07,0.46,0.11,0.72,0.11
					c0.27,0,0.52-0.04,0.74-0.11c0.22-0.07,0.41-0.17,0.58-0.29c0.17-0.12,0.31-0.27,0.44-0.44c0.12-0.17,0.22-0.35,0.3-0.55
					c0.08-0.2,0.13-0.41,0.17-0.62c0.04-0.22,0.05-0.44,0.05-0.66c0-0.22-0.02-0.44-0.05-0.66c-0.04-0.22-0.09-0.43-0.17-0.63
					c-0.08-0.2-0.18-0.38-0.3-0.56c-0.12-0.17-0.27-0.32-0.44-0.45c-0.17-0.13-0.36-0.22-0.58-0.3c-0.22-0.07-0.46-0.11-0.74-0.11
					c-0.27,0-0.51,0.04-0.72,0.11c-0.22,0.07-0.41,0.17-0.57,0.3c-0.17,0.13-0.31,0.28-0.43,0.45c-0.12,0.17-0.22,0.36-0.3,0.56
					c-0.08,0.2-0.14,0.41-0.17,0.63C75.84,31.59,75.82,31.81,75.82,32.03z"/>
			</g>
			<g>
				<path class="st3" d="M85.26,36.06L82.5,28h1.88l1.75,5.56L87.88,28h1.85l-2.79,8.06H85.26z"/>
			</g>
			<g>
				<path class="st3" d="M92.55,28h1.88l3,8.06h-1.87l-0.61-1.8h-3.02l-0.62,1.8h-1.83L92.55,28z M92.41,32.94h2.1l-1.02-2.95h-0.02
					L92.41,32.94z"/>
			</g>
			<g>
				<path class="st3" d="M97.46,29.54V28h6.4v1.54h-2.35v6.52h-1.75v-6.52H97.46z"/>
			</g>
			<g>
				<path class="st3" d="M106.63,28v8.06h-1.72V28H106.63z"/>
			</g>
			<g>
				<path class="st3" d="M107.9,32.03c0-0.37,0.04-0.72,0.11-1.07c0.07-0.35,0.18-0.68,0.33-0.99c0.15-0.31,0.33-0.6,0.55-0.86
					c0.22-0.26,0.48-0.49,0.78-0.68c0.3-0.19,0.63-0.34,1-0.45c0.37-0.11,0.78-0.16,1.22-0.16c0.45,0,0.86,0.05,1.23,0.16
					c0.37,0.11,0.71,0.25,1.01,0.45c0.3,0.19,0.56,0.42,0.78,0.68c0.22,0.26,0.41,0.55,0.56,0.86c0.15,0.31,0.26,0.64,0.33,0.99
					c0.07,0.35,0.11,0.71,0.11,1.07c0,0.37-0.04,0.72-0.11,1.07c-0.07,0.35-0.19,0.68-0.33,0.99c-0.15,0.31-0.34,0.59-0.56,0.85
					c-0.22,0.26-0.49,0.48-0.78,0.67c-0.3,0.19-0.63,0.33-1.01,0.44c-0.37,0.1-0.78,0.16-1.23,0.16c-0.45,0-0.85-0.05-1.22-0.16
					c-0.37-0.1-0.7-0.25-1-0.44c-0.3-0.19-0.56-0.41-0.78-0.67c-0.22-0.26-0.41-0.55-0.55-0.85c-0.15-0.31-0.26-0.64-0.33-0.99
					C107.94,32.76,107.9,32.4,107.9,32.03z M109.65,32.03c0,0.22,0.02,0.44,0.05,0.66c0.04,0.22,0.09,0.43,0.17,0.62
					c0.08,0.2,0.18,0.38,0.3,0.55c0.12,0.17,0.26,0.32,0.43,0.44s0.36,0.22,0.57,0.29c0.21,0.07,0.46,0.11,0.72,0.11
					c0.27,0,0.52-0.04,0.74-0.11c0.22-0.07,0.41-0.17,0.58-0.29c0.17-0.12,0.31-0.27,0.44-0.44c0.12-0.17,0.22-0.35,0.3-0.55
					c0.08-0.2,0.13-0.41,0.17-0.62c0.04-0.22,0.05-0.44,0.05-0.66c0-0.22-0.02-0.44-0.05-0.66c-0.04-0.22-0.09-0.43-0.17-0.63
					c-0.08-0.2-0.18-0.38-0.3-0.56c-0.12-0.17-0.27-0.32-0.44-0.45c-0.17-0.13-0.36-0.22-0.58-0.3c-0.22-0.07-0.46-0.11-0.74-0.11
					c-0.27,0-0.51,0.04-0.72,0.11c-0.22,0.07-0.41,0.17-0.57,0.3c-0.17,0.13-0.31,0.28-0.43,0.45c-0.12,0.17-0.22,0.36-0.3,0.56
					c-0.08,0.2-0.14,0.41-0.17,0.63C109.67,31.59,109.65,31.81,109.65,32.03z"/>
			</g>
			<g>
				<path class="st3" d="M117.07,28h1.73l3.4,5.4h0.02V28h1.67v8.06h-1.75l-3.38-5.4h-0.02v5.4h-1.67V28z"/>
			</g>
		</g>
	</g>
</g>
<g>
	<path class="st4" d="M103.48,44.88c-0.16,0.12-0.29,0.24-0.38,0.37c-0.09,0.13-0.15,0.28-0.19,0.45h3.86v1.03h-5.3
		c0-0.23,0.02-0.47,0.05-0.7s0.09-0.46,0.18-0.68c0.08-0.22,0.2-0.44,0.35-0.64s0.33-0.41,0.56-0.59l1.82-1.37
		c0.15-0.12,0.28-0.24,0.4-0.36c0.11-0.12,0.21-0.24,0.29-0.37c0.08-0.13,0.13-0.27,0.17-0.42c0.04-0.15,0.06-0.32,0.06-0.51
		c0-0.16-0.02-0.31-0.07-0.46s-0.12-0.27-0.22-0.37c-0.1-0.11-0.23-0.19-0.39-0.25c-0.16-0.06-0.35-0.09-0.57-0.09
		c-0.18,0-0.34,0.03-0.47,0.08s-0.24,0.12-0.34,0.22c-0.09,0.09-0.17,0.2-0.23,0.32c-0.06,0.12-0.1,0.25-0.13,0.38
		c-0.03,0.13-0.05,0.27-0.06,0.41c-0.01,0.14-0.01,0.27,0,0.4h-1.32v-0.6c0-0.32,0.06-0.61,0.18-0.88s0.29-0.51,0.51-0.71
		c0.22-0.2,0.49-0.36,0.81-0.47c0.32-0.11,0.68-0.17,1.07-0.17c0.42,0,0.79,0.05,1.11,0.16c0.32,0.11,0.59,0.26,0.8,0.46
		c0.21,0.2,0.38,0.43,0.48,0.7c0.11,0.27,0.16,0.58,0.16,0.91c0,0.28-0.04,0.54-0.11,0.77c-0.07,0.23-0.17,0.45-0.3,0.65
		s-0.29,0.4-0.48,0.58c-0.19,0.18-0.4,0.36-0.64,0.53L103.48,44.88z"/>
	<path class="st4" d="M110.21,38.91c0.33,0,0.61,0.04,0.86,0.11s0.47,0.17,0.65,0.3s0.34,0.27,0.47,0.45
		c0.13,0.17,0.24,0.36,0.32,0.56c0.08,0.2,0.15,0.41,0.2,0.62c0.05,0.22,0.08,0.43,0.11,0.65c0.02,0.22,0.04,0.43,0.04,0.64
		c0,0.21,0.01,0.4,0.01,0.59c0,0.22,0,0.44-0.01,0.68c-0.01,0.23-0.02,0.46-0.05,0.69c-0.03,0.23-0.06,0.46-0.11,0.67
		c-0.05,0.22-0.12,0.43-0.2,0.63s-0.2,0.38-0.33,0.55c-0.13,0.17-0.29,0.31-0.47,0.43c-0.19,0.12-0.4,0.21-0.65,0.28
		c-0.25,0.07-0.53,0.1-0.85,0.1c-0.43,0-0.79-0.06-1.09-0.18s-0.55-0.28-0.75-0.48s-0.35-0.43-0.47-0.7
		c-0.11-0.27-0.2-0.55-0.25-0.85c-0.06-0.3-0.09-0.6-0.11-0.92s-0.02-0.62-0.02-0.91c0-0.18,0-0.38,0.01-0.59
		c0.01-0.21,0.02-0.42,0.05-0.64c0.02-0.22,0.06-0.43,0.11-0.65s0.12-0.42,0.2-0.62s0.2-0.38,0.33-0.56
		c0.13-0.17,0.29-0.32,0.48-0.45s0.4-0.22,0.65-0.3C109.6,38.94,109.88,38.91,110.21,38.91z M110.21,45.8
		c0.21,0,0.39-0.04,0.54-0.13c0.15-0.09,0.27-0.21,0.37-0.35c0.1-0.15,0.17-0.32,0.23-0.52c0.05-0.2,0.1-0.41,0.12-0.63
		c0.03-0.22,0.04-0.45,0.05-0.69c0-0.24,0.01-0.47,0.01-0.69c0-0.21,0-0.42-0.01-0.64c-0.01-0.22-0.03-0.43-0.05-0.65
		c-0.03-0.21-0.07-0.41-0.13-0.6c-0.06-0.19-0.13-0.35-0.23-0.5s-0.22-0.25-0.37-0.34c-0.14-0.08-0.32-0.12-0.53-0.12
		c-0.23,0-0.42,0.05-0.57,0.14c-0.15,0.09-0.28,0.22-0.38,0.37c-0.1,0.16-0.17,0.33-0.23,0.53c-0.05,0.2-0.09,0.41-0.12,0.62
		c-0.02,0.21-0.04,0.42-0.04,0.62c0,0.21,0,0.39,0,0.56c0,0.22,0,0.45,0.01,0.69c0,0.24,0.02,0.47,0.05,0.69
		c0.03,0.22,0.07,0.43,0.12,0.63c0.05,0.2,0.13,0.37,0.23,0.52c0.1,0.15,0.22,0.27,0.37,0.35C109.8,45.75,109.99,45.8,110.21,45.8z"
		/>
	<path class="st4" d="M115.57,44.88c-0.16,0.12-0.29,0.24-0.38,0.37c-0.09,0.13-0.15,0.28-0.19,0.45h3.86v1.03h-5.3
		c0-0.23,0.02-0.47,0.05-0.7s0.09-0.46,0.18-0.68c0.08-0.22,0.2-0.44,0.35-0.64s0.33-0.41,0.56-0.59l1.82-1.37
		c0.15-0.12,0.28-0.24,0.4-0.36c0.11-0.12,0.21-0.24,0.29-0.37c0.08-0.13,0.13-0.27,0.17-0.42c0.04-0.15,0.06-0.32,0.06-0.51
		c0-0.16-0.02-0.31-0.07-0.46s-0.12-0.27-0.22-0.37c-0.1-0.11-0.23-0.19-0.39-0.25c-0.16-0.06-0.35-0.09-0.57-0.09
		c-0.18,0-0.34,0.03-0.47,0.08s-0.24,0.12-0.34,0.22c-0.09,0.09-0.17,0.2-0.23,0.32c-0.06,0.12-0.1,0.25-0.13,0.38
		c-0.03,0.13-0.05,0.27-0.06,0.41c-0.01,0.14-0.01,0.27,0,0.4h-1.32v-0.6c0-0.32,0.06-0.61,0.18-0.88s0.29-0.51,0.51-0.71
		c0.22-0.2,0.49-0.36,0.81-0.47c0.32-0.11,0.68-0.17,1.07-0.17c0.42,0,0.79,0.05,1.11,0.16c0.32,0.11,0.59,0.26,0.8,0.46
		c0.21,0.2,0.38,0.43,0.48,0.7c0.11,0.27,0.16,0.58,0.16,0.91c0,0.28-0.04,0.54-0.11,0.77c-0.07,0.23-0.17,0.45-0.3,0.65
		s-0.29,0.4-0.48,0.58c-0.19,0.18-0.4,0.36-0.64,0.53L115.57,44.88z"/>
	<path class="st4" d="M121.94,41.11c-0.21,0.08-0.48,0.14-0.81,0.18c-0.33,0.04-0.72,0.06-1.14,0.06V40.4
		c0.33,0,0.62-0.03,0.88-0.08s0.47-0.13,0.66-0.24c0.18-0.11,0.33-0.25,0.44-0.42c0.11-0.17,0.18-0.39,0.22-0.64h1.1v7.71h-1.34
		V41.11z"/>
</g>
<g>
</g>
<g>
</g>
<g>
</g>
<g>
</g>
<g>
</g>
<g>
</g>
<g>
</g>
<g>
</g>
<g>
</g>
<g>
</g>
<g>
</g>
<g>
</g>
<g>
</g>
<g>
</g>
<g>
</g>
</svg>
