<?xml version="1.0" encoding="utf-8"?>
<!-- Generator: Adobe Illustrator 25.4.1, SVG Export Plug-In . SVG Version: 6.00 Build 0)  -->
<svg version="1.1" id="Layer_1" xmlns="http://www.w3.org/2000/svg" xmlns:xlink="http://www.w3.org/1999/xlink" x="0px" y="0px"
	 viewBox="0 0 170 80" style="enable-background:new 0 0 170 80;" xml:space="preserve">
<style type="text/css">
	.st0{fill-rule:evenodd;clip-rule:evenodd;fill:#221F1F;}
	.st1{fill-rule:evenodd;clip-rule:evenodd;fill:#804096;}
	.st2{fill-rule:evenodd;clip-rule:evenodd;fill:#B48D36;}
	.st3{fill:#221F1F;}
	.st4{fill:#B48D36;}
</style>
<g>
	<g>
		<g>
			<g>
				<g>
					<path class="st0" d="M130.28,20.5c1.64-0.19,2.96,0.36,3.94,1.12c0.59,0.45,0.99,0.87,0.94,1.53
						c-0.05,0.61-0.52,1.02-1.06,1.06c-0.78,0.05-1.38-0.89-2.12-1.18c-2.23-0.86-4.9,1.41-3.76,4c0.52,1.17,2.12,2.19,3.82,1.53
						c0.86-0.33,1.21-1.19,2.06-1.18c0.64,0.01,1.16,0.47,1.18,1.12c0.02,0.87-0.87,1.42-1.41,1.76c-0.99,0.64-2.24,1.12-3.94,0.82
						c-2.36-0.42-4.73-2.68-4.35-6.05C125.83,22.84,127.78,20.78,130.28,20.5z"/>
				</g>
				<g>
					<path class="st0" d="M140.62,20.5c2.38-0.27,4.32,1.13,5.11,2.23c0.59,0.82,0.94,2.06,0.94,3.11c-0.01,2.85-2.2,5.03-4.64,5.29
						c-3.78,0.4-6.43-2.49-6.11-5.93c0.11-1.21,0.59-2.03,0.94-2.53c0.38-0.53,0.94-1.07,1.47-1.41
						C138.92,20.89,139.58,20.62,140.62,20.5z M138.51,24.67c-0.94,2.29,1.03,4.08,2.7,4.11c1.36,0.03,3.07-0.97,3.06-3
						c-0.01-1.87-1.59-3.17-3.47-2.88C139.53,23.1,138.77,24.02,138.51,24.67z"/>
				</g>
				<g>
					<path class="st0" d="M154.84,26.61c0-1.11,0-1.97,0-3.11c0-0.79-0.18-2.17,0.35-2.7c0.46-0.46,1.62-0.35,1.94,0.29
						c0.24,0.48,0.12,1.53,0.12,2.29c0,1.43,0,3.23,0,4.76c0,0.8,0.12,1.8-0.06,2.29c-0.18,0.48-0.88,0.81-1.47,0.71
						c-0.56-0.1-0.99-0.87-1.41-1.41c-1.26-1.63-2.34-3.05-3.64-4.64c0,1.01,0,1.97,0,3.17c0,0.94,0.16,2.17-0.47,2.64
						c-0.41,0.31-1.16,0.33-1.59-0.06c-0.67-0.6-0.35-3.22-0.35-4.58c0-0.86,0-1.67,0-2.47c0-1.59-0.3-3.71,1.47-3.23
						c0.57,0.16,0.94,0.83,1.41,1.41C152.39,23.53,153.65,25.15,154.84,26.61z"/>
				</g>
			</g>
			<g>
				<g>
					<path class="st1" d="M106.3,22.73c0.14-0.59,0.02-1.43,0.06-2.12c2.84,0,5.68,0,8.52,0c0,0.59,0,1.18,0,1.76
						c-2.04,0-4.07,0-6.11,0c0,0.76,0,1.53,0,2.29c1.76,0.14,3.78,0.02,5.64,0.06c0,0.61,0,1.21,0,1.82c-1.88,0-3.76,0-5.64,0
						c0,0.86,0,1.72,0,2.59c2.08,0.14,4.41,0.02,6.58,0.06c1.19-2.8,2.3-5.69,3.41-8.58c0.96,0,1.92,0,2.88,0
						c1.3,3.5,2.71,6.89,4,10.4c-0.82,0-1.65,0-2.47,0c-0.27-0.71-0.54-1.42-0.82-2.12c-1.43,0-2.86,0-4.29,0
						c-0.37,0.63-0.57,1.43-0.88,2.12c-3.6,0-7.21,0-10.81,0c0-2.02,0-4.03,0-6.05c-0.3,0.55-0.49,1.02-0.88,1.41
						c-1.18,1.17-3.29,0.95-5.64,0.94c0,1.23,0,2.47,0,3.7c-0.8,0-1.61,0-2.41,0c0.04-3.45-0.08-7.05,0.06-10.4
						C100.91,20.84,105.71,19.67,106.3,22.73z M103.31,25.31c0.66-0.37,1.14-1.7,0.53-2.47c-0.65-0.82-2.5-0.33-3.94-0.47
						c-0.14,0.92-0.02,2.1-0.06,3.11C100.95,25.28,102.36,25.85,103.31,25.31z M118.76,27.14c1,0,2,0,3,0
						c-0.51-1.35-0.99-2.73-1.59-4C119.75,24.52,119.23,25.8,118.76,27.14z"/>
				</g>
			</g>
		</g>
		<g>
			<g>
				<path class="st2" d="M77.69,29.98c-0.56,0-1.11,0-1.67,0c-1.06-8.19-4.78-14.47-9.55-19.23c-4.33-4.33-10.61-7.79-18.5-8.55
					c-0.47-0.05-0.98-0.21-1.47-0.27c-1.42-0.16-2.76-0.01-4.21,0c10.47-1.14,19.28,2.76,25.05,8.08c2.68,2.47,5.02,5.13,6.75,8.42
					C75.84,21.79,77.15,25.68,77.69,29.98z"/>
			</g>
			<g>
				<path class="st2" d="M66.6,26.7c-0.79-0.11-1.17-0.82-1.6-1.34c-3.12-3.74-6.96-7.17-12.02-9.08c-3.07-1.16-6.31-2-10.08-2
					c-3.86,0-6.99,0.84-10.09,2c-5.76,2.17-10.35,5.66-13.96,10.22c-3.57,4.52-6.12,10.27-6.48,17.63
					c-0.15-0.11-0.02-0.51-0.07-0.73c-0.2,1.43-0.16,3.29-0.07,4.81c0.02,0.12-0.06,0.14-0.07,0.07
					c-1.01-10.87,2.72-18.86,7.68-24.65c2.49-2.9,5.36-5.49,9.02-7.35c3.66-1.85,8.01-3.44,12.89-3.67
					c6.44-0.3,11.5,1.52,15.49,4.01C61.3,19.14,64.3,22.58,66.6,26.7z"/>
			</g>
			<g>
				<path class="st2" d="M75.75,32.25c0.27,0,0.53,0,0.8,0c0.33-0.27,0.44-0.75,0.93-0.87c0.84-0.2,1.41,0.33,1.74,0.87
					c0.31-0.61,0.93-1.03,1.74-0.8c0.45,0.13,0.65,0.42,0.87,0.8c0.33-0.27,0.44-0.76,0.93-0.87c0.83-0.19,1.41,0.33,1.74,0.87
					c0.4,0.04,0.98-0.09,1.27,0.07c0,0.13,0,0.27,0,0.4c-0.11,0.25-0.56,0.13-0.87,0.13c-0.33,0.01-0.67,0-0.93,0
					c-0.28-0.01-0.04-0.54-0.27-0.6c-0.44-0.58-1.33-0.1-1.27,0.6c-0.38,0-0.76,0-1.14,0c-0.3,0.03-0.01-0.52-0.2-0.6
					c-0.44-0.56-1.35-0.15-1.27,0.6c-0.38,0-0.76,0-1.14,0c-0.3,0.01,0-0.58-0.27-0.6c-0.45-0.59-1.31-0.09-1.27,0.6
					c-0.6,0-1.2,0-1.8,0c-0.37-0.34-0.41-0.72-0.73-1c-0.73-0.62-2.16-0.84-3.47-1c-1.37-0.17-2.68-0.38-3.67-0.8
					c-2.09-0.88-3.24-2.45-4.94-3.94c-1.69-1.48-3.37-2.55-5.48-3.41c-2.13-0.87-4.65-1.43-7.48-1.27
					c-5.4,0.32-9.32,2.44-12.36,5.48c-3.14,3.14-5.93,7.82-5.61,14.23c0.27,5.52,3.05,9.71,6.08,12.62
					c1.57,1.51,3.52,2.78,5.68,3.67c2.18,0.91,4.87,1.56,7.88,1.4c4.92-0.25,8.74-2.35,11.62-5.01c1.58-1.46,2.66-2.83,4.61-3.67
					c0.91-0.39,2.24-0.67,3.34-0.8c1.95-0.24,3.85-0.31,4.47-2c0.6,0,1.2,0,1.8,0c0.24,0.02,0.1,0.43,0.2,0.6
					c0.45,0.56,1.43,0.18,1.34-0.6c0.38,0,0.76,0,1.14,0c0.32-0.03-0.04,0.62,0.27,0.6c0.39,0.6,1.34,0.13,1.2-0.6
					c0.38,0,0.76,0,1.14,0c0.24,0.02,0.1,0.43,0.2,0.6c0.45,0.56,1.44,0.18,1.34-0.6c0.6,0.04,1.38-0.09,1.87,0.07
					c0,0.16,0,0.31,0,0.47c-0.17,0.3-0.88,0.05-1.27,0.13c-0.33,0.25-0.41,0.66-0.87,0.8c-0.74,0.23-1.43-0.2-1.74-0.8
					c-0.37,0.34-0.68,0.86-1.34,0.87c-0.59,0.01-1.04-0.36-1.27-0.87c-0.3-0.01-0.29,0.29-0.4,0.47c-0.67,0.66-2,0.36-2.27-0.47
					c-0.29,0-0.58,0-0.87,0c-0.51,0.49-0.64,0.86-1.14,1.14c-1.83,1.04-4.78,0.71-6.81,1.54c-1.92,0.78-3.02,2.19-4.68,3.67
					c-3.35,3.01-7.63,5.44-14.03,5.08c-2.76-0.16-5.29-1-7.35-2.07c-2.06-1.07-3.82-2.37-5.34-4.01c-2.96-3.18-5.48-7.49-5.48-13.22
					c0-5.7,2.52-10.06,5.48-13.22c3.19-3.41,7.15-5.46,12.82-6.14c0.46-0.06,1.35-0.03,2,0c4.97,0.22,9.08,2.43,11.89,5.01
					c1.72,1.57,2.44,2.8,4.74,3.74c1.02,0.42,2.22,0.58,3.47,0.73C73.29,30.49,74.93,30.88,75.75,32.25z"/>
			</g>
			<g>
				<path class="st2" d="M76.28,49.68c0.23,0.06-0.07,0.27-0.07,0.27c-2.33,3.44-5.81,6.21-9.75,8.15
					c-4.1,2.01-9.37,3.31-15.43,2.47c10.85-0.46,17.99-4.63,23.17-10.75C74.85,49.72,75.51,49.65,76.28,49.68z"/>
			</g>
			<g>
				<path class="st2" d="M81.69,29.98c-0.51,0-1.02,0-1.54,0c-0.34-5.95-2.04-10.79-4.41-14.76c-2.38-3.97-5.59-7.23-9.42-9.75
					c-0.11-0.18,0.2-0.06-0.13-0.27c-0.07,0.21-0.08,0.05-0.13-0.13C64.88,4.36,63.69,3.65,62.46,3c-0.28,0.06-0.01-0.2,0,0
					c5.31,2.32,9.64,5.82,12.89,10.22C78.6,17.61,80.91,23.16,81.69,29.98z"/>
			</g>
			<g>
				<path class="st2" d="M24.19,11.21c0.79-0.84,1.88-1.38,2.94-2c3.11-1.83,6.91-3.33,11.22-4.01c6.21-0.98,12.73,0.13,17.5,2.07
					c4.64,1.89,8.59,5.04,11.69,8.62c3.19,3.68,5.54,8.23,6.35,13.89c-0.66-0.12-1.27-0.29-1.87-0.47
					c-0.75-4.95-2.81-8.95-5.54-12.16c-2.73-3.19-6-5.77-9.82-7.81c-3.78-2.02-8.57-3.43-14.03-3.67c-2.85-0.13-5.5,0.35-7.88,0.94
					c-1.79,0.44-3.39,0.99-4.94,1.67c-0.49,0.22-1.01,0.48-1.54,0.53c0.16,0.17-0.16,0.08-0.13,0.07c-0.01,0,0.12,0.14,0,0.13
					C28,9,28.06,9.08,27.99,9.07c-0.39-0.02-1.09,0.45-1.6,0.73C25.61,10.25,24.75,10.76,24.19,11.21z"/>
			</g>
			<g>
				<path class="st2" d="M15.64,24.1c-0.25-0.07-0.02,0.21-0.07,0.27c0,0-0.16,0.01-0.2,0.07c-0.02,0.03,0.1,0.1,0.07,0.13
					c-0.02,0.02-0.1-0.1-0.13-0.07c-0.27,0.28-0.53,0.82-0.8,1.27c-0.41,0.69-0.82,1.46-1.14,2.14c0.17-0.7,0.53-1.37,0.87-2
					c3.75-7.07,9.7-12.37,17.77-15.29c2.97-1.08,6.31-1.83,10.02-1.94c3.74-0.1,7.36,0.62,10.42,1.6c3.08,0.99,5.73,2.45,7.95,4.07
					c4.69,3.45,7.98,8.04,9.75,14.23c-0.6-0.18-1.12-0.44-1.6-0.73c-0.92-2.55-2.24-4.78-3.81-6.75c-1.55-1.94-3.23-3.82-5.21-5.34
					c-4.03-3.09-9.2-4.9-15.63-5.41c-6.92-0.55-12.87,1.28-17.23,3.67c-3.96,2.17-7.26,5.07-9.88,8.55
					c-0.36,0.48-0.66,1.05-1.07,1.54C15.67,24.14,15.5,24.37,15.64,24.1z"/>
			</g>
			<g>
				<path class="st2" d="M79.22,13.81c2.98,3.84,5.66,9.44,6.21,16.16c-0.2,0-0.4,0-0.6,0c-0.24-0.16-0.17-0.51-0.2-0.73
					c-0.42-3.7-1.16-6.8-2.4-9.68c-0.25-0.57-0.6-1.1-0.67-1.67C80.87,16.44,80.06,15.11,79.22,13.81z"/>
			</g>
			<g>
				<path class="st2" d="M21.58,66.38c-0.51-0.53-0.99-1.16-1.4-1.8c-2.91-4.49-5.36-10.79-5.01-18.23c0.2-4.28,0.95-7.86,2.2-11.15
					c1.23-3.22,2.94-6,4.94-8.42c3.94-4.75,9.32-8.71,16.7-10.02c8.5-1.51,16.06,1.35,20.77,5.08c-4.87-2.37-12.07-5.07-19.7-3.54
					c-3.45,0.69-6.39,1.57-9.02,3.07c-2.55,1.46-4.64,3.3-6.55,5.48c-3.84,4.39-6.88,9.35-8.08,16.1
					c-1.16,6.53,0.08,13.21,2.2,17.97c0.17,0.39,0.32,0.74,0.47,1.07c0.01,0.01,0.03,0.15,0.07,0.2c0.16,0.21-0.04-0.04,0.13,0.4
					C19.86,63.98,20.78,65.1,21.58,66.38z"/>
			</g>
			<g>
				<path class="st2" d="M38.35,77.13c-0.82-0.19-1.56-0.63-2.27-1c-5.11-2.64-9.15-6.61-12.16-11.49
					C20.58,59.23,17.96,51.7,19.38,43c1.25-7.63,4.6-13.31,9.48-17.5c4.83-4.14,11.62-6.87,20.64-5.94
					c-7.6,0.45-13.67,2.57-18.3,6.28c-4.7,3.77-8.07,8.27-9.68,14.89c-0.86,3.53-1.15,7.46-0.8,11.09
					c0.94,9.81,5.86,17.06,12.02,21.77c0.56,0.43,1.22,0.72,1.67,1.27c0.2-0.23,0.02,0.3,0.27,0.07c-0.07-0.14,0.07,0.09,0.07,0.2
					C35.94,75.8,37.03,76.58,38.35,77.13z"/>
			</g>
			<g>
				<path class="st2" d="M54.38,78.06c-0.09,0.15-0.46,0.02-0.67,0.07c1.43,0.2,3.29,0.16,4.81,0.07c0.12-0.02,0.14,0.06,0.07,0.07
					c-8.89,0.91-16.01-1.63-21.44-5.21c-5.49-3.63-9.64-8.49-12.09-14.89c-1.29-3.38-2.21-7.11-2.2-11.35
					c0.01-3.96,1.16-7.83,2.6-10.89c2.88-6.09,7.63-10.49,13.82-13.16c0.28,0.01,0.01,0.04,0,0.13c-4.97,3.2-9.42,7.27-12.02,12.96
					c-1.31,2.85-2.41,6.23-2.67,9.82c-0.27,3.74,0.41,7.54,1.54,10.75c1.09,3.09,2.45,5.9,4.14,8.35c1.7,2.45,3.76,4.48,6.08,6.41
					C40.9,74.96,46.77,77.7,54.38,78.06z"/>
			</g>
			<g>
				<path class="st2" d="M13.17,28.38C13,28.2,13.36,27.99,13.17,28.38L13.17,28.38z"/>
			</g>
			<g>
				<path class="st2" d="M32.2,30.51c-2.44,4.78-4.99,11.86-3.67,19.37c0.63,3.59,1.49,6.41,2.94,9.02
					c0.73,1.31,1.45,2.55,2.34,3.67c0.86,1.09,1.92,2.04,2.94,3.01c4.05,3.84,9.23,6.97,15.7,8.28c7.25,1.47,15.05,0.04,20.04-2.67
					c-0.14,0.26,0.18-0.01,0.13-0.07c0.2,0.14-0.04-0.15,0.33,0c1.28-0.76,2.67-1.43,3.81-2.34c-0.51,0.57-1.2,0.96-1.87,1.4
					c-1.93,1.27-4.24,2.47-6.68,3.34c-3.3,1.17-7.32,2.01-11.62,1.8c-8.45-0.4-14.64-3.21-19.5-7.28
					c-4.84-4.05-8.86-9.3-10.09-16.76C25.59,42.74,28.42,35.28,32.2,30.51z"/>
			</g>
			<g>
				<path class="st2" d="M29.87,40.8c0.42,8.3,2.84,14.59,7.01,19.3c2.14,2.42,4.13,4.42,7.08,6.08c2.79,1.58,5.96,2.66,9.88,3.27
					c8.57,1.34,16.03-0.77,21.37-4.01c5.47-3.32,9.47-8.08,12.36-13.49c-2.74,6.24-6.9,11.06-12.56,14.56
					c-5.46,3.38-13.03,5.92-21.77,4.54c-7.66-1.21-13.38-4.69-17.5-9.62C31.68,56.57,28.79,49.79,29.87,40.8z"/>
			</g>
			<g>
				<path class="st2" d="M79.15,49.68c0.58,0,1.16,0,1.74,0c0.24,0.07-0.11,0.39-0.2,0.53c-1.76,2.76-4.03,5.32-6.61,7.41
					c-2.79,2.26-5.97,4.13-9.75,5.21c-4.12,1.18-9.15,1.25-13.29,0.27c-4.03-0.96-7.38-2.7-10.15-4.81
					c2.85,1.34,6.35,2.84,10.09,3.54c4.08,0.76,8.43,0.43,12.29-0.53C70.58,59.47,75.45,54.92,79.15,49.68z"/>
			</g>
			<g>
				<path class="st2" d="M33.07,51.22c-0.01-0.17,0.08-0.11,0.07,0c2.74,4.14,5.98,7.73,10.29,10.49c2.07,1.32,4.56,2.31,7.28,3.14
					c2.76,0.84,5.87,1.25,9.22,1c3.01-0.22,5.79-1.15,8.28-2.14c6.96-2.74,11.95-6.93,15.63-12.96c0.16-0.25,0.49-0.98,0.87-1.07
					c0.17-0.04,0.29,0.03,0.6,0c0.22,0.08-0.04,0.35-0.07,0.4c-1.05,2.17-2.55,4.25-4.07,6.08c-4.82,5.76-11.55,10.36-21.24,11.29
					c-7.02,0.67-12.84-1.51-17.1-4.34C38.42,60.17,35.27,56.18,33.07,51.22z"/>
			</g>
			<g>
				<path class="st2" d="M70.81,50.75c-2.3,2.75-5.65,5.03-9.35,6.61c0.52-0.47,1.11-0.8,1.67-1.2c1.1-0.79,2.22-1.66,3.27-2.6
					c0.52-0.47,0.94-1.1,1.47-1.47C68.7,51.5,69.88,51.3,70.81,50.75z"/>
			</g>
		</g>
		<g>
			<g>
				<path class="st3" d="M63.78,44.13c-0.16,0.19-0.35,0.35-0.56,0.49c-0.21,0.14-0.43,0.26-0.67,0.35
					c-0.24,0.09-0.48,0.17-0.74,0.21c-0.25,0.05-0.51,0.07-0.76,0.07c-0.48,0-0.89-0.05-1.24-0.15c-0.35-0.1-0.65-0.23-0.89-0.4
					c-0.24-0.16-0.44-0.35-0.59-0.55c-0.15-0.2-0.27-0.41-0.35-0.62c-0.08-0.21-0.14-0.41-0.17-0.6c-0.03-0.19-0.04-0.36-0.04-0.49
					c0-0.36,0.06-0.69,0.17-0.97c0.11-0.29,0.26-0.55,0.45-0.78c0.19-0.23,0.41-0.44,0.66-0.63c0.25-0.19,0.52-0.36,0.8-0.52
					c-0.13-0.16-0.25-0.32-0.36-0.48c-0.11-0.16-0.21-0.32-0.29-0.49c-0.08-0.17-0.15-0.34-0.2-0.52c-0.05-0.18-0.07-0.38-0.07-0.6
					c0-0.3,0.05-0.58,0.16-0.85c0.11-0.27,0.27-0.5,0.47-0.7c0.21-0.2,0.46-0.36,0.77-0.48c0.3-0.12,0.65-0.18,1.05-0.18
					c0.34,0,0.66,0.05,0.98,0.14c0.32,0.09,0.6,0.23,0.84,0.41c0.24,0.18,0.44,0.41,0.59,0.68c0.15,0.27,0.22,0.59,0.22,0.95
					c0,0.27-0.04,0.52-0.13,0.75c-0.09,0.24-0.21,0.46-0.35,0.66s-0.32,0.4-0.51,0.57c-0.2,0.17-0.4,0.33-0.61,0.46
					c0.11,0.13,0.21,0.25,0.29,0.36c0.08,0.1,0.16,0.21,0.24,0.31c0.08,0.1,0.16,0.21,0.25,0.32c0.09,0.11,0.2,0.24,0.33,0.39
					c0.04-0.17,0.07-0.34,0.09-0.51c0.02-0.18,0.05-0.37,0.07-0.59h1.7c-0.04,0.33-0.08,0.61-0.12,0.85
					c-0.04,0.24-0.08,0.45-0.13,0.65c-0.05,0.19-0.1,0.37-0.16,0.53c-0.06,0.16-0.14,0.33-0.22,0.51l2.1,2.43h-2.21L63.78,44.13z
					 M60.86,40.7c-0.17,0.11-0.34,0.22-0.49,0.33c-0.16,0.11-0.29,0.24-0.41,0.37c-0.12,0.13-0.21,0.28-0.28,0.45
					c-0.07,0.16-0.1,0.35-0.1,0.56c0,0.2,0.04,0.38,0.13,0.54c0.09,0.16,0.2,0.29,0.34,0.4c0.14,0.11,0.31,0.19,0.49,0.25
					c0.18,0.06,0.37,0.09,0.57,0.09c0.36,0,0.68-0.07,0.94-0.2c0.27-0.13,0.5-0.33,0.71-0.6L60.86,40.7z M60.7,37.49
					c0,0.1,0.02,0.19,0.05,0.29c0.03,0.1,0.08,0.2,0.14,0.3c0.06,0.1,0.13,0.21,0.21,0.31c0.08,0.1,0.16,0.21,0.25,0.32
					c0.11-0.08,0.23-0.16,0.34-0.24c0.11-0.09,0.21-0.18,0.3-0.28c0.09-0.1,0.16-0.21,0.22-0.33c0.05-0.12,0.08-0.24,0.08-0.37
					c0-0.1-0.02-0.19-0.05-0.27c-0.04-0.09-0.09-0.16-0.16-0.23c-0.07-0.06-0.16-0.12-0.26-0.15c-0.1-0.04-0.22-0.06-0.35-0.06
					c-0.1,0-0.19,0.01-0.28,0.04c-0.09,0.03-0.18,0.07-0.25,0.13c-0.07,0.06-0.13,0.13-0.17,0.22C60.72,37.27,60.7,37.37,60.7,37.49
					z"/>
			</g>
			<g>
				<path class="st3" d="M73.28,35.15v9.97h-2.12v-9.97H73.28z"/>
			</g>
			<g>
				<path class="st3" d="M75.36,35.15h2.14l4.21,6.68h0.02v-6.68h2.06v9.97h-2.16l-4.19-6.68h-0.02v6.68h-2.06V35.15z"/>
			</g>
			<g>
				<path class="st3" d="M85.73,35.15h2.14l4.21,6.68h0.02v-6.68h2.06v9.97H92l-4.19-6.68H87.8v6.68h-2.06V35.15z"/>
			</g>
			<g>
				<path class="st3" d="M95.6,40.13c0-0.45,0.05-0.9,0.14-1.33c0.09-0.43,0.23-0.84,0.41-1.23c0.18-0.39,0.41-0.74,0.68-1.06
					c0.27-0.32,0.6-0.6,0.96-0.84c0.37-0.24,0.78-0.42,1.24-0.55c0.46-0.13,0.96-0.2,1.51-0.2c0.56,0,1.06,0.07,1.53,0.2
					c0.46,0.13,0.88,0.32,1.25,0.55c0.37,0.24,0.69,0.52,0.97,0.84c0.28,0.32,0.51,0.68,0.69,1.06c0.18,0.39,0.32,0.8,0.41,1.23
					c0.09,0.43,0.14,0.88,0.14,1.33c0,0.45-0.05,0.89-0.14,1.32c-0.09,0.43-0.23,0.84-0.41,1.22c-0.18,0.38-0.42,0.73-0.69,1.06
					c-0.28,0.32-0.6,0.6-0.97,0.83c-0.37,0.23-0.78,0.41-1.25,0.54c-0.46,0.13-0.97,0.19-1.53,0.19c-0.55,0-1.06-0.06-1.51-0.19
					c-0.46-0.13-0.87-0.31-1.24-0.54c-0.37-0.23-0.69-0.51-0.96-0.83c-0.27-0.32-0.5-0.67-0.68-1.06c-0.18-0.38-0.32-0.79-0.41-1.22
					C95.64,41.03,95.6,40.58,95.6,40.13z M97.76,40.13c0,0.27,0.02,0.54,0.07,0.81c0.04,0.27,0.12,0.53,0.21,0.77
					c0.1,0.24,0.22,0.47,0.37,0.68c0.15,0.21,0.32,0.39,0.53,0.55c0.21,0.15,0.44,0.28,0.71,0.36c0.27,0.09,0.56,0.13,0.89,0.13
					c0.34,0,0.64-0.04,0.91-0.13c0.27-0.09,0.51-0.21,0.72-0.36c0.21-0.15,0.39-0.34,0.54-0.55c0.15-0.21,0.27-0.44,0.37-0.68
					c0.1-0.24,0.17-0.5,0.21-0.77c0.04-0.27,0.07-0.54,0.07-0.81s-0.02-0.54-0.07-0.82c-0.04-0.27-0.12-0.53-0.21-0.78
					c-0.1-0.25-0.22-0.48-0.37-0.69c-0.15-0.21-0.33-0.4-0.54-0.55c-0.21-0.16-0.45-0.28-0.72-0.37c-0.27-0.09-0.57-0.13-0.91-0.13
					c-0.33,0-0.63,0.04-0.89,0.13c-0.27,0.09-0.5,0.21-0.71,0.37s-0.38,0.34-0.53,0.55c-0.15,0.21-0.27,0.44-0.37,0.69
					c-0.1,0.25-0.17,0.5-0.21,0.78C97.78,39.59,97.76,39.86,97.76,40.13z"/>
			</g>
			<g>
				<path class="st3" d="M109.44,45.11l-3.41-9.97h2.33l2.16,6.89l2.16-6.89h2.29l-3.45,9.97H109.44z"/>
			</g>
			<g>
				<path class="st3" d="M118.47,35.15h2.33l3.72,9.97h-2.31l-0.75-2.22h-3.74l-0.77,2.22h-2.27L118.47,35.15z M118.29,41.25h2.59
					l-1.27-3.66h-0.02L118.29,41.25z"/>
			</g>
			<g>
				<path class="st3" d="M124.54,37.05v-1.9h7.92v1.9h-2.9v8.07h-2.16v-8.07H124.54z"/>
			</g>
			<g>
				<path class="st3" d="M135.89,35.15v9.97h-2.12v-9.97H135.89z"/>
			</g>
			<g>
				<path class="st3" d="M137.46,40.13c0-0.45,0.05-0.9,0.14-1.33c0.09-0.43,0.23-0.84,0.41-1.23c0.18-0.39,0.41-0.74,0.68-1.06
					c0.27-0.32,0.6-0.6,0.96-0.84c0.37-0.24,0.78-0.42,1.24-0.55c0.46-0.13,0.96-0.2,1.51-0.2c0.56,0,1.06,0.07,1.53,0.2
					c0.46,0.13,0.88,0.32,1.25,0.55c0.37,0.24,0.69,0.52,0.97,0.84c0.28,0.32,0.51,0.68,0.69,1.06c0.18,0.39,0.32,0.8,0.41,1.23
					c0.09,0.43,0.14,0.88,0.14,1.33c0,0.45-0.05,0.89-0.14,1.32c-0.09,0.43-0.23,0.84-0.41,1.22c-0.18,0.38-0.42,0.73-0.69,1.06
					c-0.28,0.32-0.6,0.6-0.97,0.83c-0.37,0.23-0.78,0.41-1.25,0.54c-0.46,0.13-0.97,0.19-1.53,0.19c-0.55,0-1.06-0.06-1.51-0.19
					c-0.46-0.13-0.87-0.31-1.24-0.54c-0.37-0.23-0.69-0.51-0.96-0.83c-0.27-0.32-0.5-0.67-0.68-1.06c-0.18-0.38-0.32-0.79-0.41-1.22
					C137.51,41.03,137.46,40.58,137.46,40.13z M139.63,40.13c0,0.27,0.02,0.54,0.07,0.81c0.04,0.27,0.12,0.53,0.21,0.77
					c0.1,0.24,0.22,0.47,0.37,0.68c0.15,0.21,0.32,0.39,0.53,0.55c0.21,0.15,0.44,0.28,0.71,0.36c0.27,0.09,0.56,0.13,0.89,0.13
					c0.34,0,0.64-0.04,0.91-0.13c0.27-0.09,0.51-0.21,0.72-0.36c0.21-0.15,0.39-0.34,0.54-0.55c0.15-0.21,0.27-0.44,0.37-0.68
					c0.1-0.24,0.17-0.5,0.21-0.77c0.04-0.27,0.07-0.54,0.07-0.81s-0.02-0.54-0.07-0.82c-0.04-0.27-0.12-0.53-0.21-0.78
					c-0.1-0.25-0.22-0.48-0.37-0.69c-0.15-0.21-0.33-0.4-0.54-0.55c-0.21-0.16-0.45-0.28-0.72-0.37c-0.27-0.09-0.57-0.13-0.91-0.13
					c-0.33,0-0.63,0.04-0.89,0.13c-0.27,0.09-0.5,0.21-0.71,0.37s-0.38,0.34-0.53,0.55c-0.15,0.21-0.27,0.44-0.37,0.69
					c-0.1,0.25-0.17,0.5-0.21,0.78C139.65,39.59,139.63,39.86,139.63,40.13z"/>
			</g>
			<g>
				<path class="st3" d="M148.81,35.15h2.14l4.21,6.68h0.02v-6.68h2.06v9.97h-2.16l-4.19-6.68h-0.02v6.68h-2.06V35.15z"/>
			</g>
		</g>
	</g>
</g>
<g>
	<path class="st4" d="M131.99,56.03c-0.2,0.15-0.36,0.3-0.47,0.46c-0.11,0.16-0.19,0.35-0.23,0.55h4.77v1.27h-6.56
		c0-0.29,0.02-0.58,0.06-0.86c0.04-0.29,0.11-0.56,0.22-0.84c0.11-0.27,0.25-0.54,0.43-0.8c0.18-0.26,0.41-0.5,0.69-0.73l2.25-1.7
		c0.19-0.15,0.35-0.3,0.49-0.44s0.26-0.29,0.35-0.45c0.09-0.16,0.17-0.33,0.21-0.52c0.05-0.19,0.07-0.4,0.07-0.64
		c0-0.2-0.03-0.39-0.09-0.56c-0.06-0.17-0.15-0.33-0.27-0.46c-0.12-0.13-0.28-0.24-0.48-0.31c-0.2-0.07-0.43-0.11-0.71-0.11
		c-0.23,0-0.42,0.03-0.58,0.1s-0.3,0.15-0.42,0.27c-0.12,0.11-0.21,0.24-0.28,0.39c-0.07,0.15-0.13,0.3-0.16,0.47
		c-0.04,0.16-0.06,0.33-0.07,0.51c-0.01,0.17-0.01,0.34,0,0.5h-1.63v-0.74c0-0.39,0.08-0.75,0.22-1.09s0.36-0.63,0.64-0.88
		c0.28-0.25,0.61-0.44,1.01-0.58c0.39-0.14,0.84-0.21,1.33-0.21c0.52,0,0.98,0.07,1.38,0.2c0.4,0.13,0.73,0.32,0.99,0.56
		c0.26,0.24,0.46,0.53,0.6,0.87c0.13,0.34,0.2,0.71,0.2,1.12c0,0.35-0.04,0.66-0.13,0.95s-0.21,0.56-0.38,0.81
		c-0.16,0.25-0.36,0.49-0.6,0.71c-0.24,0.22-0.5,0.44-0.79,0.65L131.99,56.03z"/>
	<path class="st4" d="M140.32,48.64c0.4,0,0.76,0.04,1.06,0.13c0.31,0.09,0.58,0.21,0.81,0.37c0.23,0.16,0.43,0.34,0.59,0.55
		c0.16,0.21,0.29,0.44,0.4,0.69c0.11,0.25,0.19,0.5,0.25,0.77c0.06,0.27,0.11,0.54,0.13,0.8c0.03,0.27,0.05,0.53,0.05,0.79
		c0.01,0.26,0.01,0.5,0.01,0.73c0,0.27,0,0.55-0.01,0.84c-0.01,0.29-0.03,0.57-0.06,0.86c-0.03,0.29-0.08,0.56-0.14,0.84
		c-0.06,0.27-0.15,0.53-0.25,0.78s-0.24,0.47-0.4,0.68s-0.36,0.38-0.59,0.53s-0.5,0.27-0.8,0.35c-0.3,0.08-0.66,0.12-1.05,0.12
		c-0.53,0-0.98-0.07-1.35-0.22s-0.68-0.34-0.92-0.59c-0.25-0.25-0.44-0.54-0.58-0.87s-0.25-0.68-0.31-1.05
		c-0.07-0.37-0.11-0.75-0.13-1.13s-0.03-0.76-0.03-1.12c0-0.23,0-0.47,0.01-0.73c0.01-0.26,0.03-0.52,0.06-0.79
		c0.03-0.27,0.08-0.54,0.14-0.8c0.06-0.27,0.14-0.52,0.25-0.77c0.11-0.25,0.24-0.48,0.4-0.69s0.36-0.4,0.59-0.55
		c0.23-0.16,0.5-0.28,0.81-0.37C139.56,48.68,139.92,48.64,140.32,48.64z M140.32,57.16c0.26,0,0.48-0.05,0.66-0.16
		c0.18-0.11,0.33-0.25,0.45-0.44c0.12-0.18,0.22-0.4,0.29-0.64c0.07-0.25,0.12-0.51,0.15-0.78c0.03-0.28,0.05-0.56,0.06-0.85
		c0.01-0.29,0.01-0.58,0.01-0.85c0-0.25,0-0.52-0.01-0.79c-0.01-0.27-0.03-0.54-0.07-0.8c-0.04-0.26-0.09-0.51-0.16-0.74
		c-0.07-0.23-0.16-0.44-0.29-0.61s-0.27-0.31-0.45-0.42c-0.18-0.1-0.4-0.16-0.66-0.16c-0.28,0-0.51,0.06-0.7,0.17
		c-0.19,0.12-0.35,0.27-0.47,0.46c-0.12,0.19-0.22,0.41-0.28,0.66c-0.06,0.25-0.11,0.5-0.14,0.76c-0.03,0.26-0.05,0.52-0.05,0.77
		s0,0.48,0,0.69c0,0.28,0,0.56,0.01,0.85c0,0.29,0.02,0.58,0.06,0.85s0.08,0.54,0.15,0.78c0.07,0.25,0.16,0.46,0.29,0.64
		c0.12,0.18,0.28,0.33,0.46,0.44S140.04,57.16,140.32,57.16z"/>
	<path class="st4" d="M146.95,56.03c-0.2,0.15-0.36,0.3-0.47,0.46c-0.11,0.16-0.19,0.35-0.23,0.55h4.77v1.27h-6.56
		c0-0.29,0.02-0.58,0.06-0.86c0.04-0.29,0.11-0.56,0.22-0.84c0.11-0.27,0.25-0.54,0.43-0.8c0.18-0.26,0.41-0.5,0.69-0.73l2.25-1.7
		c0.19-0.15,0.35-0.3,0.49-0.44s0.26-0.29,0.35-0.45c0.09-0.16,0.17-0.33,0.21-0.52c0.05-0.19,0.07-0.4,0.07-0.64
		c0-0.2-0.03-0.39-0.09-0.56c-0.06-0.17-0.15-0.33-0.27-0.46c-0.12-0.13-0.28-0.24-0.48-0.31c-0.2-0.07-0.43-0.11-0.71-0.11
		c-0.23,0-0.42,0.03-0.58,0.1s-0.3,0.15-0.42,0.27c-0.12,0.11-0.21,0.24-0.28,0.39c-0.07,0.15-0.13,0.3-0.16,0.47
		c-0.04,0.16-0.06,0.33-0.07,0.51c-0.01,0.17-0.01,0.34,0,0.5h-1.63v-0.74c0-0.39,0.08-0.75,0.22-1.09s0.36-0.63,0.64-0.88
		c0.28-0.25,0.61-0.44,1.01-0.58c0.39-0.14,0.84-0.21,1.33-0.21c0.52,0,0.98,0.07,1.38,0.2c0.4,0.13,0.73,0.32,0.99,0.56
		c0.26,0.24,0.46,0.53,0.6,0.87c0.13,0.34,0.2,0.71,0.2,1.12c0,0.35-0.04,0.66-0.13,0.95s-0.21,0.56-0.38,0.81
		c-0.16,0.25-0.36,0.49-0.6,0.71c-0.24,0.22-0.5,0.44-0.79,0.65L146.95,56.03z"/>
	<path class="st4" d="M154.83,51.36c-0.25,0.1-0.59,0.17-1,0.22c-0.41,0.05-0.89,0.07-1.42,0.07v-1.17c0.41-0.01,0.77-0.04,1.09-0.1
		s0.59-0.16,0.81-0.29c0.23-0.13,0.41-0.31,0.54-0.52c0.14-0.21,0.23-0.48,0.27-0.79h1.37v9.54h-1.66V51.36z"/>
</g>
<g>
</g>
<g>
</g>
<g>
</g>
<g>
</g>
<g>
</g>
<g>
</g>
<g>
</g>
<g>
</g>
<g>
</g>
<g>
</g>
<g>
</g>
<g>
</g>
<g>
</g>
<g>
</g>
<g>
</g>
</svg>
